<?xml version="1.0" encoding="utf-8"?>
<!-- Generator: Adobe Illustrator 21.0.0, SVG Export Plug-In . SVG Version: 6.00 Build 0)  -->
<svg version="1.1" id="图层_1" xmlns="http://www.w3.org/2000/svg" xmlns:xlink="http://www.w3.org/1999/xlink" x="0px" y="0px"
	 viewBox="0 0 100 100" style="enable-background:new 0 0 100 100;" xml:space="preserve">
<path d="M64.5,48.3h-8c-2.3,0-4.2-1.9-4.2-4.2c0-2.3,1.9-4.2,4.2-4.2H64c1.9,0,3.3,0.9,4.2,1.9c0.9,0.9,2.8,1.4,3.7,0
	c0.9-0.9,1.4-2.8,0-3.7l0,0c-2.3-2.8-5.6-3.7-9.4-3.7v-3.7c0-1.4-1.4-2.8-2.8-2.8S57,29.2,57,30.6l0,0v3.7
	c-5.6-0.5-10.3,3.3-11.2,8.9c0,5.1,3.7,10.3,9.4,10.8c0.5,0,0.9,0,1.4,0h8c2.3,0,4.2,1.9,4.2,4.2c0,2.3-1.9,4.2-4.2,4.2H56
	c-1.4,0-2.3-0.5-3.3-0.9c-1.4-0.9-2.8-0.5-3.7,0.9c-0.9,1.4-0.5,2.8,0.9,3.7c2.3,1.9,5.1,2.3,8,2.3v3.3c0,1.4,1.4,2.8,2.8,2.8
	s2.8-1.4,2.8-2.8v-3.3c5.6,0.5,10.3-3.3,11.2-8.9c0.5-5.6-3.3-10.3-8.9-11.2C64.9,48.3,64.9,48.3,64.5,48.3L64.5,48.3z M60.2,13.7
	c-3.3,0-6.6,0.5-9.8,1.4l0,0c-3.7-0.9-7-1.4-10.3-1.4c-3.7,0-7,0.5-10.3,1.4C9.7,20.7-2,41.3,3.6,61.4s26.2,31.8,46.3,26.2l0,0
	c6.6,1.9,13.6,1.9,20.1,0c16.4-4.7,27.6-19.2,27.6-36C98.1,30.6,81.3,13.7,60.2,13.7z M40.1,83.4c-17.8,0-31.8-14.5-31.8-31.8
	c0-17.8,14.5-31.8,31.8-31.8h0.5c-14,8.4-21.1,25.7-16.4,42.1c2.8,9.4,8.9,16.8,16.4,22C40.6,83.4,40.1,83.4,40.1,83.4z M60.2,83.4
	c-17.8,0-31.8-14.5-31.8-31.8c0-17.8,14.5-31.8,31.8-31.8s31.8,14.5,31.8,31.8C92.5,68.9,78,83.4,60.2,83.4z"/>
</svg>
