<?xml version="1.0" encoding="utf-8"?>
<!-- Generator: Adobe Illustrator 21.0.0, SVG Export Plug-In . SVG Version: 6.00 Build 0)  -->
<svg version="1.1" id="图层_1" xmlns="http://www.w3.org/2000/svg" xmlns:xlink="http://www.w3.org/1999/xlink" x="0px" y="0px"
	 viewBox="0 0 100 100" style="enable-background:new 0 0 100 100;" xml:space="preserve">
<g transform="translate(-491 -192)">
	<path d="M544,289.5h-6c-4.8,0-8.7-3.9-8.7-8.7v-2c-2.1-0.7-4-1.5-6-2.5l-1.4,1.4c-3.4,3.4-9,3.4-12.4,0c0,0,0,0,0,0l-4.2-4.2
		c-3.4-3.4-3.4-9,0-12.4c0,0,0,0,0,0l1.4-1.4c-1-1.9-1.8-3.9-2.5-6h-2c-4.8,0-8.7-3.9-8.7-8.7v-6c0-4.8,3.9-8.7,8.7-8.7h2
		c0.7-2.1,1.5-4,2.5-6l-1.4-1.4c-3.4-3.4-3.4-9,0-12.4c0,0,0,0,0,0l4.2-4.2c3.4-3.4,8.9-3.4,12.4,0c0,0,0,0,0,0l1.4,1.4
		c1.9-1,3.9-1.8,6-2.5v-2c0-4.8,3.9-8.7,8.7-8.7h6c4.8,0,8.7,3.9,8.7,8.7v2c2.1,0.7,4,1.5,6,2.5l1.4-1.4c3.4-3.4,9-3.4,12.4,0
		c0,0,0,0,0,0l4.2,4.2c3.4,3.4,3.4,9,0,12.4c0,0,0,0,0,0l-1.4,1.4c1,1.9,1.8,3.9,2.5,6h2c4.8,0,8.7,3.9,8.7,8.7v6
		c0,4.8-3.9,8.7-8.7,8.7h-2c-0.7,2.1-1.5,4-2.5,6l1.4,1.4c3.4,3.4,3.4,9,0,12.4c0,0,0,0,0,0l-4.2,4.2c-3.4,3.4-9,3.4-12.4,0
		c0,0,0,0,0,0l-1.4-1.4c-1.9,1-3.9,1.8-6,2.5v2C552.7,285.6,548.8,289.5,544,289.5L544,289.5z M524.2,270.4c2.7,1.6,5.5,2.8,8.5,3.5
		c1.2,0.3,2.1,1.4,2.1,2.7v4.1c0,1.8,1.4,3.2,3.2,3.2l0,0h6c1.8,0,3.2-1.4,3.2-3.2l0,0v-4.1c0-1.3,0.9-2.4,2.1-2.7
		c3-0.8,5.9-2,8.5-3.5c1.1-0.6,2.5-0.5,3.4,0.4l2.9,2.9c1.2,1.2,3.3,1.2,4.5,0c0,0,0,0,0,0l4.2-4.2c1.2-1.2,1.2-3.3,0-4.5l-2.9-2.9
		c-0.9-0.9-1.1-2.3-0.4-3.4c1.6-2.7,2.8-5.5,3.5-8.5c0.3-1.2,1.4-2.1,2.7-2.1h4.1c1.8,0,3.2-1.4,3.2-3.2v-6c0-1.8-1.4-3.2-3.2-3.2
		l0,0h-4.1c-1.3,0-2.4-0.9-2.7-2.1c-0.8-3-2-5.9-3.5-8.5c-0.6-1.1-0.5-2.5,0.4-3.4l2.9-2.9c1.2-1.2,1.2-3.3,0-4.5l-4.2-4.2
		c-1.2-1.2-3.3-1.2-4.5,0c0,0,0,0,0,0l-2.9,2.9c-0.9,0.9-2.3,1.1-3.4,0.4c-2.7-1.6-5.5-2.8-8.5-3.5c-1.2-0.3-2.1-1.4-2.1-2.7v-4.1
		c0-1.8-1.4-3.2-3.2-3.2l0,0h-6c-1.8,0-3.2,1.4-3.2,3.2v4.1c0,1.3-0.9,2.4-2.1,2.7c-3,0.8-5.9,2-8.5,3.5c-1.1,0.6-2.5,0.5-3.4-0.4
		l-2.9-2.9c-1.2-1.2-3.3-1.2-4.5,0c0,0,0,0,0,0l-4.2,4.2c-1.2,1.2-1.2,3.3,0,4.5l2.9,2.9c0.9,0.9,1.1,2.3,0.4,3.4
		c-1.6,2.7-2.8,5.5-3.5,8.5c-0.3,1.2-1.4,2.1-2.7,2.1h-4.1c-1.8,0-3.2,1.4-3.2,3.2v6c0,1.8,1.4,3.2,3.2,3.2l0,0h4.1
		c1.3,0,2.4,0.9,2.7,2.1c0.8,3,2,5.9,3.5,8.5c0.6,1.1,0.5,2.5-0.4,3.4l-2.9,2.9c-1.2,1.2-1.2,3.3,0,4.5l4.2,4.2
		c1.2,1.2,3.3,1.2,4.5,0l2.9-2.9C521.7,269.9,523.1,269.8,524.2,270.4L524.2,270.4z"/>
	<path d="M541,262.7c-11.4,0-20.7-9.3-20.7-20.7s9.3-20.7,20.7-20.7c11.4,0,20.7,9.3,20.7,20.7C561.7,253.4,552.4,262.7,541,262.7z
		 M541,226.9c-8.3,0-15.1,6.8-15.1,15.1c0,8.3,6.8,15.1,15.1,15.1c8.3,0,15.1-6.8,15.1-15.1C556.1,233.7,549.3,226.9,541,226.9z"/>
</g>
</svg>
