<?xml version="1.0" encoding="utf-8"?>
<!-- Generator: Adobe Illustrator 21.0.0, SVG Export Plug-In . SVG Version: 6.00 Build 0)  -->
<svg version="1.1" id="图层_1" xmlns="http://www.w3.org/2000/svg" xmlns:xlink="http://www.w3.org/1999/xlink" x="0px" y="0px"
	 viewBox="0 0 100 100" style="enable-background:new 0 0 100 100;" xml:space="preserve">
<g transform="translate(0 -1.568)">
	<g transform="translate(2.602 17.283)">
		<g transform="translate(0 0)">
			<rect x="17.8" y="70.3" width="58.1" height="6.6"/>
		</g>
	</g>
	<g transform="translate(5.754 7.176)">
		<path d="M54.1,29.8H33.7c-1.8,0-3.3,1.5-3.3,3.3c0,1.8,1.5,3.3,3.3,3.3h20.4c1.8,0,3.3-1.5,3.3-3.3C57.4,31.3,55.9,29.8,54.1,29.8
			L54.1,29.8z"/>
	</g>
	<g transform="translate(5.61 10.105)">
		<path d="M68.9,41.6H33.1c-1.8,0-3.3,1.5-3.3,3.3c0,1.8,1.5,3.3,3.3,3.3h35.8c1.8,0,3.3-1.5,3.3-3.3C72.2,43,70.7,41.6,68.9,41.6z"
			/>
	</g>
	<g transform="translate(0 1.568)">
		<g transform="translate(0 0)">
			<path d="M90.8,7.7c-1.1-0.5-2.4-0.3-3.4,0.5l-8.8,7.8l-8.8-7.9c-1.2-1.1-3-1.1-4.2,0L56.9,16l-8.8-7.9c-1.2-1.1-3-1.1-4.2,0
				l-8.8,7.9l-8.8-7.8c-1.3-1.1-3.3-1-4.4,0.3c-0.5,0.6-0.8,1.3-0.8,2.1v56.2H10.5c-1.7,0-3.1,1.4-3.1,3.2c0,0,0,0,0,0v7.7
				c0,8.3,6.7,15,15,15v-6.3c-4.8,0-8.7-3.9-8.7-8.7v-4.5h49.1v4.5c0,8.3,6.7,15,14.9,15c8.3,0,15-6.7,15-14.9c0,0,0,0,0,0v-67
				C92.7,9.4,91.9,8.2,90.8,7.7z M86.4,77.6c0.1,4.8-3.7,8.8-8.5,8.9S69.1,82.8,69,78c0-0.1,0-0.3,0-0.4v-7.7c0-1.7-1.4-3.2-3.1-3.2
				c0,0,0,0,0,0H27.4V17.6l5.7,5c1.2,1.1,3,1.1,4.2,0l8.8-7.9l8.8,7.9c1.2,1.1,3,1.1,4.2,0l8.8-7.9l8.8,7.9c1.2,1.1,3,1.1,4.2,0
				l5.7-5V77.6z"/>
		</g>
	</g>
</g>
</svg>
