<?xml version="1.0" encoding="utf-8"?>
<!-- Generator: Adobe Illustrator 21.0.0, SVG Export Plug-In . SVG Version: 6.00 Build 0)  -->
<svg version="1.1" id="图层_1" xmlns="http://www.w3.org/2000/svg" xmlns:xlink="http://www.w3.org/1999/xlink" x="0px" y="0px"
	 viewBox="0 0 100 100" style="enable-background:new 0 0 100 100;" xml:space="preserve">
<g transform="translate(-673 -371)">
	<path d="M741.8,407.6c1.9-1.5,2.3-4.3,0.8-6.2c-0.7-0.8-1.6-1.4-2.6-1.6c1.6-3,2.8-6.3,3.6-9.6c1.6-4.6,1.2-9.6-1-13.9
		c-1.3-2-3.4-3.1-5.7-3.2c-3.8,0.6-7.3,2.6-9.8,5.5c-1,0.9-2,1.8-3.1,2.6c-0.7-0.4-1.7-1.1-2.7-1.7c-3.4-2.8-7.6-4.5-12-5.1
		c-1.6,0-3.2,0.4-4.5,1.2c-2,1.3-3.2,3.6-3,6c0.3,6.4,2.2,12.6,5.4,18.2c-2.4,0.6-3.8,3-3.2,5.4c0.2,0.9,0.8,1.8,1.5,2.4
		c-7.4,8.5-16.9,24.9-16.9,33.6c0,16.5,13.9,27.7,34.7,27.7c20.7,0,34.7-11.1,34.7-27.7C757.7,432.5,748.8,416.2,741.8,407.6
		L741.8,407.6z M708.3,381.2c0.3-0.1,0.5-0.1,0.8-0.1c3,0.7,5.9,2,8.3,4c1.4,1,2.9,1.9,4.5,2.6c0.6,0.2,1.2,0.4,1.8,0.3
		c3-0.5,5.7-2.1,7.7-4.5c1.5-1.3,4.2-3.8,5.3-3.8c0.1,0.1,0.3,0.3,0.4,0.4c2.6,3.6-2.2,16.7-5,19.5c-2.6,0.4-5.3,0.6-8,0.6
		c-3.3-0.1-6.6-0.4-9.8-1.1C711.6,396.2,707.3,384.2,708.3,381.2L708.3,381.2z M723,462.2c-12.9,0-28-5.5-28-21
		c0-7,10.3-24.7,17-31.1c1.1,0.2,2.3,0.4,3.4,0.5c0.7,0.1,1.5,0.2,2.2,0.3c0.1,0,0.2,0,0.3,0c0.5,0,1.1,0.1,1.6,0.1
		c5.2,0.4,10.5,0.1,15.6-0.8c6.5,6.9,15.8,23.9,15.8,31.1C750.9,456.7,735.9,462.2,723,462.2L723,462.2z"/>
	<path d="M731.9,439.5c-0.7-0.9-1.6-1.6-2.6-2.2c-1.5-0.8-3-1.2-4.7-1.4c-3.1-0.5-4.7-1.4-4.7-2.9c0-0.6,0.3-1.1,0.8-1.4
		c0.6-0.5,1.4-0.7,2.2-0.7c0.6,0,1.1,0.1,1.7,0.2c0.5,0.1,0.9,0.3,1.3,0.5c0.4,0.2,0.8,0.5,1.2,0.8c0.3,0.3,0.7,0.7,1.1,1.1h4.8
		v-7.1h-4.7v1c-0.6-0.4-1.2-0.6-1.9-0.8v-2.6h-4.7v2.2c-0.9,0.1-1.7,0.4-2.5,0.8c-0.8,0.4-1.4,0.9-2,1.5c-0.6,0.6-1,1.3-1.3,2
		c-0.3,0.8-0.5,1.6-0.5,2.4c0,0.7,0.1,1.3,0.3,2c0.2,0.8,0.6,1.6,1.2,2.2c0.8,0.8,1.7,1.5,2.6,2c1.4,0.7,3,1.1,4.6,1.3
		c0.6,0.1,1.1,0.2,1.6,0.3c0.5,0.1,1,0.3,1.5,0.6c0.4,0.2,0.8,0.5,1.1,0.9c0.3,0.3,0.5,0.8,0.4,1.2c0,0.6-0.3,1.1-0.8,1.4
		c-0.6,0.4-1.4,0.5-2.1,0.5c-0.6,0-1.2,0-1.7-0.2c-0.5-0.1-0.9-0.3-1.4-0.5c-0.4-0.2-0.8-0.5-1.2-0.8c-0.4-0.4-0.8-0.8-1.2-1.2h-4.7
		v7.1h4.7V449c0.2,0.1,0.5,0.2,0.7,0.3l0.7,0.3v2.7h4.7v-2.1c1-0.1,1.9-0.3,2.8-0.6c0.8-0.3,1.6-0.8,2.2-1.4c0.6-0.6,1.1-1.3,1.5-2
		c0.4-0.8,0.5-1.6,0.5-2.5c0-0.6-0.1-1.2-0.3-1.8C732.8,441,732.5,440.2,731.9,439.5L731.9,439.5z"/>
</g>
</svg>
