<?xml version="1.0" encoding="utf-8"?>
<!-- Generator: Adobe Illustrator 24.0.1, SVG Export Plug-In . SVG Version: 6.00 Build 0)  -->
<svg version="1.1" id="图层_1" xmlns="http://www.w3.org/2000/svg" xmlns:xlink="http://www.w3.org/1999/xlink" x="0px" y="0px"
	 viewBox="0 0 200 200" style="enable-background:new 0 0 200 200;" xml:space="preserve">
<path d="M162.47,138.69c10.56,4.16,16.87,9.4,16.87,15.09c0,13.53-35.58,24.5-79.47,24.5c-43.88,0-79.46-10.97-79.46-24.5
	c0-5.69,6.3-10.93,16.86-15.09c-2.53,1.76-3.92,3.66-3.92,5.63c0,9.19,29.78,16.63,66.51,16.63c36.74,0,66.52-7.44,66.52-16.63
	C166.39,142.35,165.01,140.45,162.47,138.69L162.47,138.69z M60.86,27.34c7.98,0,14.44,6.47,14.44,14.44
	c0,7.98-6.47,14.45-14.44,14.45c-7.98,0-14.44-6.47-14.44-14.45C46.42,33.81,52.88,27.34,60.86,27.34L60.86,27.34z M138.67,27.34
	c-7.97,0-14.44,6.47-14.44,14.44c0,7.98,6.47,14.45,14.44,14.45c7.98,0,14.45-6.47,14.45-14.45
	C153.12,33.81,146.65,27.34,138.67,27.34L138.67,27.34z M124.4,110.42v38.07h10.18l4.07-26.69l4.08,26.69h11.08v-42.17
	c4.39-2.29,7.41-6.89,7.41-12.18V72.58c0-7.54-6.16-13.72-13.71-13.72h-16.87c-1.09,0-2.15,0.13-3.17,0.37
	c2.26,3.45,3.57,7.57,3.57,11.99V94.7C131.04,100.71,128.57,106.34,124.4,110.42L124.4,110.42z M100.12,22
	c8.68,0,15.72,7.04,15.72,15.72c0,8.68-7.04,15.72-15.72,15.72c-8.68,0-15.72-7.04-15.72-15.72C84.4,29.04,91.43,22,100.12,22
	L100.12,22z M115.64,107.98c4.82-2.48,8.14-7.51,8.14-13.28V71.22c0-8.21-6.72-14.92-14.92-14.92H90.5
	c-8.21,0-14.92,6.72-14.92,14.92V94.7c0,5.74,3.29,10.75,8.08,13.25v45.88h12.06l4.43-29.04l4.43,29.04h11.08L115.64,107.98
	L115.64,107.98z M75.14,110.42c-4.17-4.07-6.63-9.71-6.63-15.72V71.22c0-4.42,1.31-8.54,3.57-11.99c-1.02-0.24-2.08-0.37-3.17-0.37
	H52.03c-7.55,0-13.71,6.17-13.71,13.72v21.57c0,5.28,3.02,9.88,7.42,12.18v42.17h11.08l4.08-26.69l4.07,26.69h10.18V110.42z"/>
</svg>
