<?xml version="1.0" encoding="utf-8"?>
<!-- Generator: Adobe Illustrator 24.0.1, SVG Export Plug-In . SVG Version: 6.00 Build 0)  -->
<svg version="1.1" id="图层_1" xmlns="http://www.w3.org/2000/svg" xmlns:xlink="http://www.w3.org/1999/xlink" x="0px" y="0px"
	 viewBox="0 0 200 200" style="enable-background:new 0 0 200 200;" xml:space="preserve">
<path d="M145.48,24c5.04,0,9.35,4.32,10.07,9.35V46.3c13.67,3.6,24.46,15.83,24.46,30.94c0,16.55-12.95,30.22-28.78,31.66
	c-7.91,17.99-23.74,30.94-43.17,33.09v25.9h19.43c3.6,0,7.19,2.88,7.19,7.19c0,3.6-2.88,7.19-7.19,7.19H74.98
	c-3.6,0-7.19-2.88-7.19-7.19c0-3.6,2.88-7.19,7.19-7.19H94.4v-26.62c-17.99-2.88-33.09-14.39-41.01-30.94l-0.72-1.44
	c-17.27,0-30.94-14.39-30.94-31.66c0-15.11,10.79-28.06,25.18-31.66h1.44V34.07c0-5.76,4.32-10.07,9.35-10.07
	C57.71,24,145.48,24,145.48,24z M105.19,53.5c-2.16-4.32-5.76-5.04-7.19-0.72v0.72l-6.48,12.95l-13.67,2.16
	c-4.32,0.72-5.76,4.32-2.88,7.19l0.72,0.72l10.07,10.79l-2.16,15.11c-0.72,5.04,1.44,7.19,5.76,5.04h0.72l12.23-7.19l12.23,7.19
	c4.32,2.16,6.48,0.72,6.48-4.32v-0.72l-2.16-15.11l10.07-10.79c3.6-3.6,2.16-6.48-2.16-7.91h-0.72l-15.11-1.44L105.19,53.5
	L105.19,53.5z M47.64,59.97c-7.19,2.16-12.23,8.63-12.23,17.27c0,7.91,5.04,15.11,12.95,17.27c0-1.44,0-2.88-0.72-4.32
	C47.64,90.19,47.64,59.97,47.64,59.97z M155.56,61.41v33.09c6.48-2.88,10.79-9.35,10.79-16.55s-3.6-12.95-9.35-15.83
	C156.99,62.13,155.56,61.41,155.56,61.41z"/>
</svg>
