<?xml version="1.0" encoding="utf-8"?>
<!-- Generator: Adobe Illustrator 24.0.1, SVG Export Plug-In . SVG Version: 6.00 Build 0)  -->
<svg version="1.1" id="图层_1" xmlns="http://www.w3.org/2000/svg" xmlns:xlink="http://www.w3.org/1999/xlink" x="0px" y="0px"
	 viewBox="0 0 200 200" style="enable-background:new 0 0 200 200;" xml:space="preserve">
<path d="M181.08,40.7v117c-19.4-3.5-34.4-5.2-45.2-5.2c-16.1,0-46.8,9.2-67.6,11.4c-13.9,1.5-30.4,1.2-49.5-0.9V45.8
	c22.3,2,38.8,2.2,49.5,0.7c16-2.4,48.6-10.1,67.6-11.3C148.58,34.2,163.68,36.1,181.08,40.7z M29.38,86.8v32.7
	c5.4,0.8,10.7,1.2,16.2,1.4c3.6,0.2,7.5,0.2,11.3,0.2l5.7-0.2v33.4l4.9-0.1c4.8-0.2,9.4-0.4,13.8-0.8c5.7-0.5,11.5-1.2,17.2-2.1
	v-33.7l-5.6,0.8c-3.8,0.5-7.7,0.9-11.7,1.2c-5.9,0.5-12.1,0.8-18.4,1.1V88.3C51.88,88.8,40.58,88.3,29.38,86.8z M152.08,44.8
	c-5.3-0.3-10.7-0.3-16.1,0v32.9c-6.4,1.6-12.8,3.1-19,4.3c-4.8,0.9-9.4,1.7-13.8,2.4l-4.1,0.6V51.7l-5.6,0.8
	c-3.8,0.5-7.7,0.9-11.7,1.2c-6,0.6-12.2,0.9-18.6,1.1v33.5l4.9-0.1c4.8-0.1,9.4-0.4,13.8-0.8c5.7-0.5,11.4-1.2,17.1-2.1v32.4
	l18.8-2.7l18.6-4.7v33.4c4.8-0.3,9.8-0.3,15.2,0c5.4,0.3,11.2,0.8,17.6,1.7v-33.5c-9.1-1.5-18.5-2.1-27.7-2l-4.9,0.2V78.4
	c4.6-0.3,9.4-0.3,14.6,0c5.4,0.3,11.2,0.8,17.6,1.7V46.7C163.28,45.7,157.58,45.1,152.08,44.8L152.08,44.8z"/>
</svg>
